<?xml version="1.0" encoding="UTF-8" ?>
<svg version="1.1" width="20" height="23" xmlns="http://www.w3.org/2000/svg" shape-rendering="crispEdges">
<rect x="12" y="0" width="2" height="2" fill="#6ABE30" />
<rect x="11" y="1" width="1" height="3" fill="#6ABE30" />
<rect x="10" y="2" width="1" height="2" fill="#6ABE30" />
<rect x="12" y="2" width="1" height="1" fill="#6ABE30" />
<rect x="9" y="3" width="1" height="2" fill="#6ABE30" />
<rect x="6" y="5" width="2" height="3" fill="#6ABE30" />
<rect x="12" y="5" width="2" height="3" fill="#6ABE30" />
<rect x="5" y="6" width="1" height="2" fill="#6ABE30" />
<rect x="8" y="6" width="4" height="2" fill="#6ABE30" />
<rect x="14" y="6" width="2" height="2" fill="#6ABE30" />
<rect x="4" y="7" width="1" height="1" fill="#6ABE30" />
<rect x="16" y="7" width="2" height="1" fill="#6ABE30" />
<rect x="3" y="8" width="14" height="1" fill="#FBF236" />
<rect x="2" y="9" width="14" height="1" fill="#FBF236" />
<rect x="2" y="10" width="13" height="1" fill="#FBF236" />
<rect x="1" y="11" width="13" height="3" fill="#DF7126" />
<rect x="1" y="14" width="13" height="3" fill="#76428A" />
<rect x="14" y="15" width="1" height="2" fill="#76428A" />
<rect x="15" y="16" width="2" height="1" fill="#76428A" />
<rect x="2" y="17" width="17" height="1" fill="#AC3232" />
<rect x="2" y="18" width="16" height="1" fill="#AC3232" />
<rect x="3" y="19" width="14" height="1" fill="#AC3232" />
<rect x="4" y="20" width="12" height="1" fill="#4C64F2" />
<rect x="5" y="21" width="10" height="1" fill="#4C64F2" />
<rect x="6" y="22" width="7" height="1" fill="#4C64F2" />
</svg>