<?xml version="1.0" encoding="UTF-8" ?>
<svg
  xmlns="http://www.w3.org/2000/svg"
  viewBox="0 0 512 512"
  width="512"
  height="512"
>
  <path
    fill="#000"
    d="M351.7,167.9c-20.2,0-41.7-11.8-55.5-11.8c-14.3,0-35.6,11.3-52.1,11.3c-27,0-52.9-21.3-72.6-21.3
    c-37.9,0-97.4,56-97.4,148.4c0,89.4,77.5,183.5,114.9,183.5c18.6,0,30.2-10.9,52.6-10.9c22.9,0,30.7,10.9,52.6,10.9
    c38.7,0,114.9-87.2,114.9-183.9c0-80.5-51.1-132.6-107.4-126.3zM316.6,80.6c11.4-13.7,20.4-33.1,17.1-53.3c-18.1,1.2-39.2,12.7-51.6,27.6
    c-11.3,13.3-21,32.9-17.4,52.1C283.9,108.8,304.9,95.9,316.6,80.6z"
  />
</svg>
