<?xml version="1.0" encoding="UTF-8" ?>
<svg version="1.1" width="20" height="20" xmlns="http://www.w3.org/2000/svg" shape-rendering="crispEdges">
<rect x="7" y="0" width="6" height="1" fill="#D8D0D0" />
<rect x="10" y="1" width="5" height="1" fill="#D8D0D0" />
<rect x="11" y="2" width="5" height="1" fill="#D8D0D0" />
<rect x="12" y="3" width="5" height="1" fill="#D8D0D0" />
<rect x="13" y="4" width="5" height="2" fill="#D8D0D0" />
<rect x="18" y="5" width="1" height="10" fill="#D8D0D0" />
<rect x="14" y="6" width="4" height="10" fill="#D8D0D0" />
<rect x="19" y="7" width="1" height="6" fill="#D8D0D0" />
<rect x="13" y="11" width="1" height="8" fill="#D8D0D0" />
<rect x="12" y="13" width="1" height="7" fill="#D8D0D0" />
<rect x="11" y="14" width="1" height="6" fill="#D8D0D0" />
<rect x="2" y="15" width="3" height="1" fill="#D8D0D0" />
<rect x="10" y="15" width="1" height="5" fill="#D8D0D0" />
<rect x="3" y="16" width="7" height="1" fill="#D8D0D0" />
<rect x="14" y="16" width="3" height="1" fill="#D8D0D0" />
<rect x="4" y="17" width="6" height="1" fill="#D8D0D0" />
<rect x="14" y="17" width="2" height="1" fill="#D8D0D0" />
<rect x="5" y="18" width="5" height="1" fill="#D8D0D0" />
<rect x="14" y="18" width="1" height="1" fill="#D8D0D0" />
<rect x="7" y="19" width="3" height="1" fill="#D8D0D0" />
</svg>