<svg width="32" height="32" viewBox="0 0 32 32" xmlns="http://www.w3.org/2000/svg">
  <!-- Lid -->
  <rect x="9" y="7.5" width="14" height="3" fill="#fff" stroke="#000" stroke-width="1"/>
  <!-- Main body - bulged outward symmetrically in the center -->
  <path d="M 8 10.5 L 7 14 L 7 17 L 7 20 L 7 23 L 8 24 L 8 28.5 L 24 28.5 L 24 24 L 25 23 L 25 20 L 25 17 L 25 14 L 24 10.5 Z" fill="#fff" stroke="#000" stroke-width="1"/>
  <!-- Vertical lines - curved outward symmetrically with even bulge on both sides -->
  <!-- Left line: bulges left by 0.5 units, symmetric around y=19.5 -->
  <path d="M 12 10.5 C 11.75 13.5 11.5 16.5 11.5 19.5 C 11.5 22.5 11.75 25.5 12 28.5" fill="none" stroke="#000" stroke-width="1"/>
  <!-- Middle line: bulges left by 1 unit, symmetric around y=19.5 -->
  <path d="M 16 10.5 C 15.5 13.5 15 16.5 15 19.5 C 15 22.5 15.5 25.5 16 28.5" fill="none" stroke="#000" stroke-width="1"/>
  <!-- Right line: bulges right by 0.5 units, symmetric around y=19.5 -->
  <path d="M 20 10.5 C 20.25 13.5 20.5 16.5 20.5 19.5 C 20.5 22.5 20.25 25.5 20 28.5" fill="none" stroke="#000" stroke-width="1"/>
</svg>

