<?xml version="1.0" encoding="UTF-8" ?>
<svg version="1.1" width="24" height="22" xmlns="http://www.w3.org/2000/svg" shape-rendering="crispEdges">
<rect x="4" y="0" width="16" height="1" fill="#000000" />
<rect x="4" y="1" width="2" height="3" fill="#000000" />
<rect x="6" y="1" width="12" height="2" fill="#FFFFFF" />
<rect x="18" y="1" width="2" height="3" fill="#000000" />
<rect x="3" y="3" width="1" height="19" fill="#000000" />
<rect x="6" y="3" width="12" height="1" fill="#000000" />
<rect x="20" y="3" width="1" height="19" fill="#000000" />
<rect x="4" y="4" width="1" height="18" fill="#000000" />
<rect x="5" y="4" width="2" height="17" fill="#FFFFFF" />
<rect x="7" y="4" width="2" height="18" fill="#000000" />
<rect x="9" y="4" width="2" height="17" fill="#FFFFFF" />
<rect x="11" y="4" width="2" height="18" fill="#000000" />
<rect x="13" y="4" width="2" height="17" fill="#FFFFFF" />
<rect x="15" y="4" width="2" height="18" fill="#000000" />
<rect x="17" y="4" width="2" height="17" fill="#FFFFFF" />
<rect x="19" y="4" width="1" height="18" fill="#000000" />
<rect x="5" y="21" width="2" height="1" fill="#000000" />
<rect x="9" y="21" width="2" height="1" fill="#000000" />
<rect x="13" y="21" width="2" height="1" fill="#000000" />
<rect x="17" y="21" width="2" height="1" fill="#000000" />
</svg>